<svg width="60" height="60" viewBox="0 0 60 60" fill="none" xmlns="http://www.w3.org/2000/svg">
<ellipse cx="30.1658" cy="29.9493" rx="21.6258" ry="25.1573" fill="white"/>
<path d="M30.1657 45.5238C27.8963 45.5238 25.8494 44.8514 24.025 43.5067C22.2451 42.1223 20.8212 40.2436 19.7533 37.8705C18.6853 35.4974 18.1514 32.8474 18.1514 29.9206C18.1514 26.9937 18.6853 24.3636 19.7533 22.03C20.8212 19.6964 22.2674 17.8375 24.0918 16.4532C25.9162 15.0689 27.9408 14.3767 30.1657 14.3767C32.4351 14.3767 34.4597 15.0689 36.2396 16.4532C38.064 17.8375 39.5102 19.6964 40.5781 22.03C41.646 24.3636 42.18 26.9937 42.18 29.9206C42.18 32.8474 41.646 35.4974 40.5781 37.8705C39.5547 40.2436 38.1307 42.1223 36.3064 43.5067C34.482 44.8514 32.4351 45.5238 30.1657 45.5238ZM30.1657 44.0406C34.7934 44.0406 37.1073 39.3339 37.1073 29.9206C37.1073 20.5468 34.7934 15.8599 30.1657 15.8599C25.5379 15.8599 23.2241 20.5468 23.2241 29.9206C23.2241 39.3339 25.5379 44.0406 30.1657 44.0406Z" fill="#FF8B43"/>
<path d="M31.1807 26.1434C31.5846 23.9285 30.5916 21.529 30.0447 20.6061C34.4878 24.1658 33.621 28.5165 32.6954 30.2963C32.4429 30.8896 31.4584 31.74 30.0447 33.9549C28.631 36.1698 29.2032 39.8217 29.666 41.3709C28.7403 40.3491 26.8891 37.7716 26.8891 35.6358C26.8891 33.5 27.983 31.7795 28.53 31.1862C29.2452 30.4282 30.7768 28.3583 31.1807 26.1434Z" fill="#FF8B43"/>
<path d="M30.0843 60C25.8146 60 21.8539 59.2707 18.2023 57.8121C14.5506 56.3534 11.3483 54.3057 8.59552 51.669C5.89889 48.9762 3.79214 45.8065 2.27528 42.1599C0.75843 38.5133 0 34.4741 0 30.0421C0 25.6101 0.75843 21.5708 2.27528 17.9243C3.79214 14.2216 5.89889 11.0519 8.59552 8.41515C11.3483 5.7223 14.5506 3.64657 18.2023 2.18794C21.8539 0.729313 25.8146 0 30.0843 0C34.2977 0 38.2022 0.729313 41.7977 2.18794C45.4494 3.64657 48.6236 5.7223 51.3202 8.41515C54.0168 11.0519 56.1236 14.2216 57.6404 17.9243C59.2135 21.5708 60 25.6101 60 30.0421C60 34.4741 59.2135 38.5133 57.6404 42.1599C56.1236 45.8065 54.0168 48.9762 51.3202 51.669C48.6236 54.3057 45.4494 56.3534 41.7977 57.8121C38.2022 59.2707 34.2977 60 30.0843 60ZM30.0843 52.763C33.118 52.763 35.8989 52.202 38.427 51.0799C41.0112 49.9579 43.2303 48.3871 45.0843 46.3675C46.9382 44.3478 48.3708 41.9635 49.382 39.2146C50.3932 36.4095 50.8989 33.352 50.8989 30.0421C50.8989 26.676 50.3932 23.6185 49.382 20.8696C48.3708 18.0645 46.9382 15.6522 45.0843 13.6325C43.2303 11.6129 41.0112 10.0421 38.427 8.92006C35.8989 7.79804 33.118 7.23703 30.0843 7.23703C26.9382 7.23703 24.073 7.79804 21.4888 8.92006C18.9045 10.0421 16.6854 11.641 14.8315 13.7167C12.9775 15.7363 11.5449 18.1487 10.5337 20.9537C9.57865 23.7027 9.10113 26.7321 9.10113 30.0421C9.10113 33.4081 9.57865 36.4937 10.5337 39.2987C11.5449 42.0477 12.9775 44.432 14.8315 46.4516C16.6854 48.4712 18.9045 50.0421 21.4888 51.1641C24.073 52.23 26.9382 52.763 30.0843 52.763Z" fill="#FF8B43"/>
</svg>
