<svg width="32" height="32" viewBox="0 0 32 32" fill="none" xmlns="http://www.w3.org/2000/svg">
<path d="M0 16C0 7.16344 7.16344 0 16 0V0C24.8366 0 32 7.16344 32 16V16C32 24.8366 24.8366 32 16 32V32C7.16344 32 0 24.8366 0 16V16Z" fill="#FEE4E2"/>
<g clip-path="url(#clip0_20383_177)">
<path d="M16.0002 13.3333V15.9999M16.0002 18.6666H16.0068M22.6668 15.9999C22.6668 19.6818 19.6821 22.6666 16.0002 22.6666C12.3183 22.6666 9.3335 19.6818 9.3335 15.9999C9.3335 12.318 12.3183 9.33325 16.0002 9.33325C19.6821 9.33325 22.6668 12.318 22.6668 15.9999Z" stroke="#D92D20" stroke-width="1.33333" stroke-linecap="round" stroke-linejoin="round"/>
</g>
<defs>
<clipPath id="clip0_20383_177">
<rect width="16" height="16" fill="white" transform="translate(8 8)"/>
</clipPath>
</defs>
</svg>
