<svg width="60" height="60" viewBox="0 0 60 60" fill="none" xmlns="http://www.w3.org/2000/svg">
<g clip-path="url(#clip0_202_649)">
<path d="M30.625 45.6487C19.925 45.6487 11.25 40.8412 11.25 33.1487V20.6487H50V33.1487C50 39.6124 41.325 45.6487 30.625 45.6487Z" fill="#203442"/>
<path d="M57.7139 15.6374L34.1251 4.10362C32.8406 3.47609 31.4298 3.1499 30.0001 3.1499C28.5705 3.1499 27.1597 3.47609 25.8751 4.10362L2.28637 15.6374C1.58489 15.98 0.996606 16.517 0.591509 17.1844C0.186411 17.8518 -0.018447 18.6215 0.00130478 19.402C0.0210566 20.1824 0.264587 20.9408 0.702925 21.5868C1.14126 22.2328 1.75595 22.7394 2.47387 23.0461L5.62512 24.3986L26.3039 33.2474C27.4721 33.7472 28.7295 34.0049 30.0001 34.0049C31.2708 34.0049 32.5282 33.7472 33.6964 33.2474L54.3751 24.3986L57.5264 23.0511C58.2457 22.745 58.8618 22.2385 59.3011 21.5919C59.7405 20.9453 59.9846 20.186 60.0044 19.4045C60.0242 18.6231 59.8187 17.8524 59.4126 17.1844C59.0065 16.5165 58.4168 15.9794 57.7139 15.6374Z" fill="#4C5665"/>
<path d="M50.0001 50.6485C49.6686 50.6485 49.3506 50.5168 49.1162 50.2824C48.8818 50.048 48.7501 49.7301 48.7501 49.3985V27.3498L31.1476 18.3235C30.8526 18.172 30.6298 17.9095 30.5283 17.5938C30.4268 17.278 30.4549 16.9348 30.6064 16.6398C30.7579 16.3447 31.0204 16.122 31.3361 16.0205C31.6519 15.9189 31.9951 15.947 32.2901 16.0985L51.2501 25.8223V49.3985C51.2501 49.7301 51.1184 50.048 50.884 50.2824C50.6496 50.5168 50.3316 50.6485 50.0001 50.6485Z" fill="#ECF0F1"/>
<path d="M30.625 20.6487C33.7316 20.6487 36.25 18.9697 36.25 16.8987C36.25 14.8276 33.7316 13.1487 30.625 13.1487C27.5184 13.1487 25 14.8276 25 16.8987C25 18.9697 27.5184 20.6487 30.625 20.6487Z" fill="#203442"/>
<path d="M50 56.8987C52.7614 56.8987 55 54.6601 55 51.8987C55 49.1373 52.7614 46.8987 50 46.8987C47.2386 46.8987 45 49.1373 45 51.8987C45 54.6601 47.2386 56.8987 50 56.8987Z" fill="#FACE53"/>
</g>
<defs>
<clipPath id="clip0_202_649">
<rect width="60" height="60" fill="white"/>
</clipPath>
</defs>
</svg>
