<svg width="40" height="40" viewBox="0 0 60 60" fill="none" xmlns="http://www.w3.org/2000/svg">
<g clip-path="url(#clip0_202_681)">
<path d="M25.0089 17.95V10.1141L18.5175 2.27808C11.1843 5.31897 5.31934 11.184 2.27832 18.5171L10.1143 25.0086H17.9503C19.2741 21.8242 21.8245 19.2739 25.0089 17.95Z" fill="#FFD460"/>
<path d="M57.7218 18.5171L42.0498 25.0086C42.6894 26.5469 43.0433 28.2328 43.0433 29.9999C43.0433 31.7671 42.6894 33.453 42.0498 34.9913L57.7218 41.4828C59.1886 37.9455 59.9998 34.0676 59.9998 29.9999C59.9998 25.9322 59.1886 22.0544 57.7218 18.5171Z" fill="#FF562B"/>
<path d="M17.9503 34.9915H10.1143L2.27832 41.4829C5.31922 48.8161 11.1842 54.6811 18.5175 57.7221L25.0089 49.8861V42.0501C21.8245 40.7261 19.2741 38.1758 17.9503 34.9915Z" fill="#FFD460"/>
<path d="M16.9566 29.9999C16.9566 28.2328 17.3105 26.5469 17.9501 25.0086L2.27801 18.5171C0.811172 22.0544 0 25.9322 0 29.9999C0 34.0676 0.811172 37.9455 2.27801 41.4828L17.95 34.9913C17.3104 33.453 16.9566 31.767 16.9566 29.9999Z" fill="#FF7855"/>
<path d="M25.0086 42.0498L18.5171 57.7218C22.0543 59.1887 25.9321 59.9999 29.9998 59.9999L32.6085 51.5216L29.9998 43.0433C28.2326 43.0433 26.5468 42.6895 25.0086 42.0498Z" fill="#FF7855"/>
<path d="M34.9912 17.95V10.1141L41.4827 2.27808C48.8158 5.31897 54.6808 11.184 57.7218 18.5171L49.8859 25.0086H42.0499C40.726 21.8242 38.1757 19.2739 34.9912 17.95Z" fill="#FFA418"/>
<path d="M42.0499 34.9912H49.8859L57.7218 41.4827C54.6809 48.8158 48.8159 54.6808 41.4827 57.7218L34.9912 49.8859V42.0499C38.1757 40.7259 40.726 38.1755 42.0499 34.9912Z" fill="#FFA418"/>
<path d="M43.0433 29.9999C43.0433 28.2328 42.6894 26.5469 42.0498 25.0086L57.7218 18.5171C59.1887 22.0544 59.9999 25.9322 59.9999 29.9999C59.9999 34.0676 59.1887 37.9455 57.7219 41.4828L42.0499 34.9913C42.6895 33.453 43.0433 31.767 43.0433 29.9999Z" fill="#FF562B"/>
<path d="M30 43.0433V59.9999C34.0677 59.9999 37.9455 59.1887 41.4829 57.7219L34.9914 42.05C33.453 42.6895 31.7671 43.0433 30 43.0433Z" fill="#FF562B"/>
<path d="M18.5171 2.27801L25.0086 17.9498C26.5469 17.3104 28.2328 16.9564 29.9999 16.9564L32.6087 8.47816L29.9999 0C25.9322 0 22.0544 0.811172 18.5171 2.27801Z" fill="#FF7855"/>
<path d="M41.4829 2.27801C37.9455 0.811172 34.0677 0 30 0V16.9566C31.7672 16.9566 33.453 17.3105 34.9913 17.9501L41.4829 2.27801Z" fill="#FF562B"/>
</g>
<defs>
<clipPath id="clip0_202_681">
<rect width="60" height="60" fill="white"/>
</clipPath>
</defs>
</svg>
