<svg xmlns="http://www.w3.org/2000/svg" width="2" height="2" fill='#CF3B27' stroke-width="2"  data-name="Layer 1" viewBox="0 0 50 525" x="0px" y="0px"><title>AIbots</title><path d="M24,42.35A2,2,0,1,1,26.35,44,2,2,0,0,1,24,42.35ZM42.35,41A2,2,0,1,0,40,39.35,2,2,0,0,0,42.35,41ZM58,76v5a3,3,0,0,1-3,3H13a3,3,0,0,1-3-3V76a6,6,0,0,1,6-6h7V67.22l-.67.12a6.41,6.41,0,0,1-1.06.09,6,6,0,0,1-5.89-5L13.72,53.1A8.84,8.84,0,0,1,11.3,39.34l-1.13-6.41A6,6,0,0,1,15,26l10.84-1.91-1.22-6.9a1,1,0,0,1,2-.34l1.22,6.89,10.83-1.91a6,6,0,0,1,6.95,4.87l1.13,6.41a8.84,8.84,0,0,1,2.43,13.76l1.65,9.37a6,6,0,0,1-4.87,7l-1,.17V70h7A6,6,0,0,1,58,76ZM47.24,35.84l1.45,8.26a6.82,6.82,0,0,0,.68-4.38A6.93,6.93,0,0,0,47.24,35.84Zm-35.1-3.26,1.21,6.89h0l1.89,10.69L31,47.43a1,1,0,0,1,.67.12l6.15,3.6,4.5-5.32a1,1,0,0,1,.58-.34l3.86-.73L43.65,27a4,4,0,0,0-3.93-3.3,4.14,4.14,0,0,0-.7.06L27.2,25.86h0L15.38,28A4,4,0,0,0,12.14,32.58Zm1.1,17.77-1.46-8.26a6.89,6.89,0,0,0-.67,4.38A6.81,6.81,0,0,0,13.24,50.35ZM23.6,65.08A1.06,1.06,0,0,1,24,65h0L45.62,61.2a4,4,0,0,0,3.24-4.63l-1.73-9.84-3.49.66-4.82,5.69a1,1,0,0,1-1.26.22L31,49.46,15.58,52.13l0,.15h0l1.74,9.84A4,4,0,0,0,22,65.37ZM25,70H43V63.69L25,66.87ZM37.92,82a4,4,0,0,0-7.84,0ZM56,76a4,4,0,0,0-4-4H16a4,4,0,0,0-4,4v5a1,1,0,0,0,1,1H28.05A6,6,0,0,1,40,82H55a1,1,0,0,0,1-1Zm-5-2H47a1,1,0,0,0,0,2h4a1,1,0,0,1,1,1v3a1,1,0,0,0,2,0V77A3,3,0,0,0,51,74ZM63,56.5A4.5,4.5,0,1,1,58.5,52,4.51,4.51,0,0,1,63,56.5Zm-2,0A2.5,2.5,0,1,0,58.5,59,2.5,2.5,0,0,0,61,56.5Zm15-7A6.5,6.5,0,1,1,69.5,43,6.51,6.51,0,0,1,76,49.5Zm-2,0A4.5,4.5,0,1,0,69.5,54,4.51,4.51,0,0,0,74,49.5ZM73.5,36A6.51,6.51,0,0,1,67,29.5a1,1,0,0,0-2,0A8.51,8.51,0,0,0,73.5,38a1,1,0,0,0,0-2Zm14.56-1.94a7.29,7.29,0,0,1-11,7.59,12.54,12.54,0,0,1-3.15.4A12.9,12.9,0,1,1,81,18.4c.33,0,.63,0,.93,0a9,9,0,0,1,6.11,15.71ZM89,27.4a7.06,7.06,0,0,0-7-7,8.41,8.41,0,0,0-1,.08,1,1,0,0,1-.72-.17A10.9,10.9,0,1,0,73.9,40.05a11,11,0,0,0,3-.44.9.9,0,0,1,.28,0,1,1,0,0,1,.58.18,5.23,5.23,0,0,0,3.09,1A5.26,5.26,0,0,0,86,34a1,1,0,0,1,.34-1.06A7,7,0,0,0,89,27.4Z"/></svg>