<svg width="40" height="40" viewBox="0 0 60 60" fill="none" xmlns="http://www.w3.org/2000/svg">
<path d="M25.2773 59.9376C24.4556 57.1872 21.9072 55.1804 18.8894 55.1804C15.8716 55.1804 13.3231 57.1858 12.5015 59.9376H25.2773Z" fill="#C98C40"/>
<path d="M28.7192 28.3146L27.6704 27.9731L17.428 59.4316L18.4767 59.7731L28.7192 28.3146Z" fill="#C98C40"/>
<path d="M40.5948 3.19971C40.5948 3.19971 68.3425 14.3671 57.4774 44.1954C57.4774 44.1954 50.3876 38.3715 39.7104 40.2042C39.7104 40.2042 53.6658 22.3105 40.5948 3.19971Z" fill="#FF9000"/>
<path d="M40.5946 3.19976C40.5946 3.19976 13.3203 -8.18762 0 20.8553C0 20.8553 10.5574 22.6559 15.4176 31.389C15.4162 31.3876 17.8254 7.68118 40.5946 3.19976Z" fill="#F26E91"/>
<path d="M15.416 31.3875C15.416 31.3875 29.7975 26.8086 39.7101 40.2056C39.7101 40.2056 53.9844 22.1058 40.5944 3.19971C40.5944 3.19971 18.6747 6.10748 15.416 31.3875Z" fill="#7191F0"/>
</svg>
