<svg width="40" height="40" viewBox="0 0 60 60" fill="none" xmlns="http://www.w3.org/2000/svg">
<path d="M54.2856 54.5715H14.2856C11.1427 54.5715 8.57129 52.0001 8.57129 48.8572V20.2858C8.57129 17.143 11.1427 14.5715 14.2856 14.5715H54.2856C57.4284 14.5715 59.9999 17.143 59.9999 20.2858V48.8572C59.9999 52.0001 57.4284 54.5715 54.2856 54.5715Z" fill="#E65100"/>
<path d="M45.7143 46H5.71429C2.57143 46 0 43.4286 0 40.2857V11.7143C0 8.57143 2.57143 6 5.71429 6H45.7143C48.8571 6 51.4286 8.57143 51.4286 11.7143V40.2857C51.4286 43.4286 48.8571 46 45.7143 46Z" fill="#F57C00"/>
<path d="M34.2861 17.4285C34.2861 18.5652 34.7377 19.6553 35.5414 20.459C36.3451 21.2627 37.4352 21.7143 38.5718 21.7143C39.7085 21.7143 40.7986 21.2627 41.6023 20.459C42.406 19.6553 42.8576 18.5652 42.8576 17.4285C42.8576 16.2919 42.406 15.2018 41.6023 14.3981C40.7986 13.5944 39.7085 13.1428 38.5718 13.1428C37.4352 13.1428 36.3451 13.5944 35.5414 14.3981C34.7377 15.2018 34.2861 16.2919 34.2861 17.4285Z" fill="#FFF9C4"/>
<path d="M19.9997 20.1428L7.14258 38.8571H32.8569L19.9997 20.1428Z" fill="#942A09"/>
<path d="M35.714 28.1428L27.1426 38.8571H44.2854L35.714 28.1428Z" fill="#BF360C"/>
</svg>
