<svg width="40" height="40" viewBox="0 0 60 60" fill="none" xmlns="http://www.w3.org/2000/svg">
<g clip-path="url(#clip0_202_699)">
<path d="M27.3913 34.6208L26.0869 21.2512L54.7826 22.5556L53.4782 43.7748L27.3913 34.6208Z" fill="#BEC8D6"/>
<path d="M27.3913 10.4904L26.0869 22.5556H54.7826L53.4782 1.33618L27.3913 10.4904Z" fill="#DAE0E7"/>
<path d="M60.0003 22.5556L56.7394 21.2512L53.4785 22.5556V43.8067H60.0003V22.5556Z" fill="#3897FF"/>
<path d="M60.0003 1.30444H53.4785V22.5557H60.0003V1.30444Z" fill="#8BC0FF"/>
<path d="M15 33.3171L17.6087 46.6311C17.6087 46.6311 18.9293 45.8974 20.5435 45.0007C22.1576 44.104 23.4783 41.6094 23.4783 39.4572V34.6215L15 33.3171Z" fill="#354A67"/>
<path d="M17.6085 34.5652V54.7826L10.4346 56.087L11.7389 31.9565L17.6085 34.5652Z" fill="#3897FF"/>
<path d="M11.7387 31.9565V56.087L5.86914 54.7826V34.5652L11.7387 31.9565Z" fill="#8BC0FF"/>
<path d="M17.6091 54.7827V58.6958H11.7396L9.13086 56.7392L11.7396 54.7827H17.6091Z" fill="#233145"/>
<path d="M11.7387 54.7827H5.86914V58.6958H11.7387V54.7827Z" fill="#354A67"/>
<path d="M24.7828 21.252L23.4785 34.6215H5.86978L4.56543 21.252H24.7828Z" fill="#FA6121"/>
<path d="M23.4785 10.491L24.7828 22.5562H4.56543L5.86978 10.491H23.4785Z" fill="#FB7B46"/>
<path d="M2.93478 32.9349C1.32065 32.0382 0 29.5436 0 27.3915V22.5557L2.93478 19.947L5.86957 22.5557V34.5654C5.86957 34.5654 4.54891 33.8317 2.93478 32.9349Z" fill="#233145"/>
<path d="M2.93478 12.1763C1.32065 13.0731 0 15.5676 0 17.7198V22.5556H5.86957V10.5459C5.86957 10.5459 4.54891 11.2796 2.93478 12.1763Z" fill="#354A67"/>
<path d="M27.3916 22.5563V34.6215H23.4785V22.5563L25.435 21.252L27.3916 22.5563Z" fill="#DAE0E7"/>
<path d="M27.3916 10.491H23.4785V22.5562H27.3916V10.491Z" fill="white"/>
</g>
<defs>
<clipPath id="clip0_202_699">
<rect width="60" height="60" fill="white"/>
</clipPath>
</defs>
</svg>
