<svg width="40" height="40" viewBox="0 0 60 60" fill="none" xmlns="http://www.w3.org/2000/svg">
<g clip-path="url(#clip0_202_719)">
<path d="M21.6568 18.2192C21.542 18.0969 21.4696 17.9408 21.4504 17.7742C21.4312 17.6075 21.4663 17.4391 21.5503 17.2939C21.583 17.2372 21.6229 17.1849 21.6688 17.1383L37.6596 1.12275C37.8084 0.973778 37.9858 0.856405 38.1812 0.777678C38.3765 0.69895 38.5857 0.66049 38.7963 0.664605C39.0069 0.66872 39.2144 0.715325 39.4065 0.801624C39.5986 0.887923 39.7713 1.01214 39.9143 1.16682C44.6063 6.24101 47.9873 12.3849 49.7631 19.0639L40.0841 30L25.6896 25.4925C24.9545 22.7771 23.5705 20.2811 21.6568 18.2192Z" fill="#28A8EA"/>
<path d="M57.4266 18.6784C57.3785 18.4752 57.29 18.2837 57.1665 18.1153C57.0431 17.9469 56.887 17.805 56.7076 17.698C56.5283 17.591 56.3293 17.5212 56.1224 17.4925C55.9156 17.4639 55.705 17.4771 55.5034 17.5313L25.6875 25.4954C26.4815 28.4645 26.4834 31.5899 25.6931 34.5601L35.6372 46.9476L49.7912 41.0374L55.4955 42.5706C55.6972 42.6252 55.9079 42.6387 56.1149 42.6104C56.3219 42.582 56.5212 42.5123 56.7008 42.4055C56.8804 42.2986 57.0367 42.1567 57.1604 41.9883C57.2841 41.8199 57.3727 41.6283 57.4209 41.425C59.157 33.9423 59.1589 26.162 57.4266 18.6784Z" fill="#0078D4"/>
<path d="M25.6929 34.5596C24.9679 37.268 23.598 39.7605 21.7001 41.8243C21.5585 41.9719 21.4803 42.1691 21.4825 42.3737C21.4846 42.5783 21.5668 42.7739 21.7115 42.9185L37.6959 58.8785C37.8445 59.0269 38.0215 59.1438 38.2163 59.2223C38.4111 59.3008 38.6198 59.3392 38.8298 59.3352C39.0397 59.3312 39.2468 59.285 39.4385 59.1992C39.6302 59.1134 39.8026 58.9899 39.9455 58.8359C44.6269 53.7925 48.0066 47.6827 49.7911 41.0369L25.6929 34.5596Z" fill="#0358A7"/>
<path opacity="0.1" d="M33.7502 46.2499V15.6249C33.7483 14.9625 33.4842 14.3277 33.0158 13.8593C32.5473 13.3909 31.9126 13.1269 31.2501 13.125H25.6364L21.6689 17.0987C21.6229 17.1453 21.583 17.1976 21.5504 17.2543C21.4663 17.3995 21.4312 17.5679 21.4504 17.7346C21.4696 17.9013 21.542 18.0573 21.6569 18.1796C23.5706 20.2416 24.9546 22.7377 25.6896 25.4531L25.696 25.4535L25.6872 25.4559C26.4809 28.4251 26.4829 31.5504 25.693 34.5206C25.4865 35.2931 25.2267 36.0503 24.9154 36.7868C24.1383 38.6249 23.0507 40.3156 21.7002 41.7849C21.5585 41.9326 21.4804 42.1299 21.4826 42.3345C21.4847 42.5391 21.567 42.7348 21.7118 42.8794L27.5916 48.75H31.2501C31.9126 48.7481 32.5474 48.484 33.0158 48.0156C33.4843 47.5472 33.7483 46.9124 33.7502 46.2499Z" fill="black"/>
<path opacity="0.2" d="M31.8752 48.1249V17.4999C31.8733 16.8375 31.6092 16.2027 31.1408 15.7343C30.6723 15.2659 30.0376 15.0019 29.3751 15H23.7644L21.6689 17.0987C21.6229 17.1453 21.583 17.1976 21.5504 17.2543C21.4663 17.3995 21.4312 17.5679 21.4504 17.7346C21.4696 17.9013 21.542 18.0573 21.6569 18.1796C23.5706 20.2416 24.9546 22.7377 25.6896 25.4531L25.696 25.4535L25.6872 25.4559C26.4809 28.4251 26.4829 31.5504 25.693 34.5206C25.4865 35.2931 25.2267 36.0503 24.9154 36.7867C24.1383 38.6249 23.0507 40.3156 21.7002 41.7849C21.5585 41.9326 21.4804 42.1299 21.4826 42.3345C21.4847 42.5391 21.567 42.7348 21.7118 42.8794L29.4672 50.6227C30.1132 50.5971 30.7243 50.323 31.173 49.8576C31.6217 49.3921 31.8733 48.7714 31.8752 48.1249Z" fill="black"/>
<path opacity="0.2" d="M31.8752 44.3749V17.4999C31.8733 16.8375 31.6092 16.2027 31.1408 15.7343C30.6723 15.2659 30.0376 15.0019 29.3751 15H23.7644L21.6689 17.0987C21.6229 17.1453 21.583 17.1976 21.5504 17.2543C21.4663 17.3995 21.4312 17.5679 21.4504 17.7346C21.4696 17.9013 21.542 18.0573 21.6569 18.1796C23.5706 20.2416 24.9546 22.7377 25.6896 25.4531L25.696 25.4535L25.6872 25.4559C26.4809 28.4251 26.4829 31.5504 25.693 34.5206C25.4865 35.2931 25.2267 36.0503 24.9154 36.7868C24.1383 38.6249 23.0507 40.3156 21.7002 41.7849C21.5585 41.9326 21.4804 42.1299 21.4826 42.3345C21.4847 42.5391 21.567 42.7348 21.7118 42.8794L25.714 46.875H29.3753C30.0378 46.873 30.6725 46.609 31.1409 46.1405C31.6093 45.6721 31.8733 45.0373 31.8752 44.3749Z" fill="black"/>
<path opacity="0.2" d="M30.0002 44.3749V17.4999C29.9983 16.8375 29.7342 16.2027 29.2658 15.7343C28.7973 15.2659 28.1626 15.0019 27.5001 15H23.7644L21.6689 17.0987C21.6229 17.1453 21.583 17.1976 21.5504 17.2543C21.4663 17.3995 21.4312 17.5679 21.4504 17.7346C21.4696 17.9013 21.542 18.0573 21.6569 18.1796C23.5706 20.2416 24.9546 22.7377 25.6896 25.4531L25.696 25.4535L25.6872 25.4559C26.4809 28.4251 26.4829 31.5504 25.693 34.5206C25.4865 35.2931 25.2267 36.0503 24.9154 36.7868C24.1383 38.6249 23.0507 40.3156 21.7002 41.7849C21.5585 41.9326 21.4804 42.1299 21.4826 42.3345C21.4847 42.5391 21.567 42.7348 21.7118 42.8794L25.714 46.875H27.5003C28.1628 46.873 28.7975 46.609 29.2659 46.1405C29.7343 45.6721 29.9983 45.0373 30.0002 44.3749Z" fill="black"/>
<path d="M2.49994 15H27.5001C28.1631 15 28.799 15.2634 29.2678 15.7322C29.7366 16.201 30 16.8369 30 17.4999V42.5001C30 43.1631 29.7366 43.799 29.2678 44.2678C28.799 44.7366 28.1631 45 27.5001 45H2.49994C1.83691 45 1.20104 44.7366 0.732215 44.2678C0.263385 43.799 0 43.1631 0 42.5001L0 17.4999C0 16.8369 0.263385 16.201 0.732215 15.7322C1.20104 15.2634 1.83691 15 2.49994 15Z" fill="#0078D4"/>
<path d="M14.6737 28.6271C14.8485 28.9878 14.9886 29.3643 15.092 29.7516H15.1313C15.2258 29.3717 15.3617 29.0033 15.5367 28.6532L19.3291 21.5104C19.4711 21.243 19.6831 21.0193 19.9426 20.8634C20.202 20.7074 20.499 20.625 20.8017 20.625C21.0941 20.625 21.3813 20.7019 21.6346 20.8479C21.8879 20.994 22.0983 21.2041 22.2447 21.4571C22.3912 21.7102 22.4685 21.9973 22.469 22.2896C22.4694 22.582 22.393 22.8694 22.2473 23.1229L17.0003 32.2556C16.8551 32.5084 16.7787 32.7948 16.7787 33.0862V37.7079C16.7787 38.1501 16.603 38.5741 16.2903 38.8867C15.9777 39.1994 15.5536 39.375 15.1115 39.375H14.7719C14.3297 39.375 13.9057 39.1993 13.593 38.8867C13.2803 38.574 13.1047 38.1499 13.1047 37.7077V33.1406C13.1046 32.856 13.0318 32.5761 12.893 32.3276L7.74291 23.1052C7.60118 22.8515 7.52825 22.5651 7.53134 22.2745C7.53444 21.9838 7.61347 21.6991 7.76058 21.4484C7.90769 21.1977 8.11777 20.9899 8.36999 20.8454C8.62222 20.701 8.90782 20.625 9.19847 20.625H9.52622C9.83221 20.625 10.1323 20.7092 10.3937 20.8683C10.655 21.0275 10.8675 21.2555 11.0078 21.5274L14.6737 28.6271Z" fill="white"/>
</g>
<defs>
<clipPath id="clip0_202_719">
<rect width="60" height="60" fill="white"/>
</clipPath>
</defs>
</svg>
